<mxfile host="app.diagrams.net" modified="2023-10-20T11:32:12.537Z" agent="Mozilla/5.0 (Windows NT 10.0; Win64; x64) AppleWebKit/537.36 (KHTML, like Gecko) Chrome/118.0.0.0 Safari/537.36" etag="h3qrTNzBPQ-iBBAoIp_s" version="22.0.5" type="github">
  <diagram name="Page-1" id="9361dd3d-8414-5efd-6122-117bd74ce7a7">
    <mxGraphModel dx="4391" dy="2337" grid="1" gridSize="10" guides="1" tooltips="1" connect="1" arrows="1" fold="1" page="0" pageScale="1.5" pageWidth="826" pageHeight="1169" background="none" math="0" shadow="0">
      <root>
        <mxCell id="0" />
        <mxCell id="1" parent="0" />
        <mxCell id="BIsx5rSYDtpPCg-pWCxZ-103" style="edgeStyle=orthogonalEdgeStyle;rounded=0;orthogonalLoop=1;jettySize=auto;html=1;entryX=1;entryY=0.5;entryDx=0;entryDy=0;" parent="1" edge="1" target="BIsx5rSYDtpPCg-pWCxZ-149">
          <mxGeometry relative="1" as="geometry">
            <mxPoint x="-1350" y="-745" as="sourcePoint" />
            <mxPoint x="-900" y="-790" as="targetPoint" />
            <Array as="points">
              <mxPoint x="-1360" y="-745" />
              <mxPoint x="-1360" y="-730" />
              <mxPoint x="-1340" y="-730" />
              <mxPoint x="-1340" y="-750" />
              <mxPoint x="-1200" y="-750" />
              <mxPoint x="-1200" y="-785" />
            </Array>
          </mxGeometry>
        </mxCell>
        <mxCell id="BIsx5rSYDtpPCg-pWCxZ-129" style="edgeStyle=orthogonalEdgeStyle;rounded=0;orthogonalLoop=1;jettySize=auto;html=1;" parent="1" edge="1">
          <mxGeometry relative="1" as="geometry">
            <mxPoint x="-1270" y="-700" as="sourcePoint" />
            <mxPoint x="-1010" y="-650" as="targetPoint" />
            <Array as="points" />
          </mxGeometry>
        </mxCell>
        <mxCell id="BIsx5rSYDtpPCg-pWCxZ-127" style="edgeStyle=orthogonalEdgeStyle;rounded=0;orthogonalLoop=1;jettySize=auto;html=1;" parent="1" source="BIsx5rSYDtpPCg-pWCxZ-126" edge="1">
          <mxGeometry relative="1" as="geometry">
            <mxPoint x="-980" y="-780" as="targetPoint" />
          </mxGeometry>
        </mxCell>
        <mxCell id="BIsx5rSYDtpPCg-pWCxZ-162" style="edgeStyle=orthogonalEdgeStyle;rounded=0;orthogonalLoop=1;jettySize=auto;html=1;" parent="1" edge="1">
          <mxGeometry relative="1" as="geometry">
            <mxPoint x="-645" y="-490" as="targetPoint" />
            <mxPoint x="-600" y="-640" as="sourcePoint" />
            <Array as="points">
              <mxPoint x="-600" y="-620" />
              <mxPoint x="-644" y="-620" />
            </Array>
          </mxGeometry>
        </mxCell>
        <mxCell id="WOAsNPhqjVb93GGCy772-5" style="edgeStyle=orthogonalEdgeStyle;rounded=0;orthogonalLoop=1;jettySize=auto;html=1;exitX=1;exitY=0.3333333333333333;exitDx=0;exitDy=0;exitPerimeter=0;" edge="1" parent="1" source="BIsx5rSYDtpPCg-pWCxZ-126">
          <mxGeometry relative="1" as="geometry">
            <mxPoint x="-520" y="-790" as="targetPoint" />
            <Array as="points">
              <mxPoint x="-610" y="-780" />
              <mxPoint x="-519" y="-780" />
              <mxPoint x="-519" y="-790" />
            </Array>
          </mxGeometry>
        </mxCell>
        <mxCell id="WOAsNPhqjVb93GGCy772-11" style="edgeStyle=orthogonalEdgeStyle;rounded=0;orthogonalLoop=1;jettySize=auto;html=1;exitX=1;exitY=0.3333333333333333;exitDx=0;exitDy=0;exitPerimeter=0;" edge="1" parent="1" source="BIsx5rSYDtpPCg-pWCxZ-126">
          <mxGeometry relative="1" as="geometry">
            <mxPoint x="-500" y="-680" as="targetPoint" />
          </mxGeometry>
        </mxCell>
        <mxCell id="WOAsNPhqjVb93GGCy772-12" style="edgeStyle=orthogonalEdgeStyle;rounded=0;orthogonalLoop=1;jettySize=auto;html=1;exitX=1;exitY=0.3333333333333333;exitDx=0;exitDy=0;exitPerimeter=0;" edge="1" parent="1" source="BIsx5rSYDtpPCg-pWCxZ-126">
          <mxGeometry relative="1" as="geometry">
            <mxPoint x="-490" y="-580" as="targetPoint" />
            <mxPoint x="-620" y="-700" as="sourcePoint" />
            <Array as="points">
              <mxPoint x="-620" y="-720" />
              <mxPoint x="-620" y="-670" />
              <mxPoint x="-569" y="-670" />
              <mxPoint x="-569" y="-580" />
              <mxPoint x="-490" y="-580" />
            </Array>
          </mxGeometry>
        </mxCell>
        <mxCell id="WOAsNPhqjVb93GGCy772-13" style="edgeStyle=orthogonalEdgeStyle;rounded=0;orthogonalLoop=1;jettySize=auto;html=1;" edge="1" parent="1" source="BIsx5rSYDtpPCg-pWCxZ-126">
          <mxGeometry relative="1" as="geometry">
            <mxPoint x="-500" y="-470" as="targetPoint" />
            <Array as="points">
              <mxPoint x="-570" y="-670" />
              <mxPoint x="-570" y="-450" />
              <mxPoint x="-500" y="-450" />
            </Array>
          </mxGeometry>
        </mxCell>
        <mxCell id="WOAsNPhqjVb93GGCy772-15" style="edgeStyle=orthogonalEdgeStyle;rounded=0;orthogonalLoop=1;jettySize=auto;html=1;" edge="1" parent="1" source="BIsx5rSYDtpPCg-pWCxZ-126">
          <mxGeometry relative="1" as="geometry">
            <mxPoint x="-645" y="-920" as="targetPoint" />
          </mxGeometry>
        </mxCell>
        <mxCell id="WOAsNPhqjVb93GGCy772-16" style="edgeStyle=orthogonalEdgeStyle;rounded=0;orthogonalLoop=1;jettySize=auto;html=1;" edge="1" parent="1" source="BIsx5rSYDtpPCg-pWCxZ-126">
          <mxGeometry relative="1" as="geometry">
            <mxPoint x="-770" y="-900" as="targetPoint" />
            <Array as="points">
              <mxPoint x="-645" y="-809" />
              <mxPoint x="-750" y="-809" />
              <mxPoint x="-750" y="-860" />
            </Array>
          </mxGeometry>
        </mxCell>
        <mxCell id="BIsx5rSYDtpPCg-pWCxZ-126" value="Деканат" style="shape=umlActor;verticalLabelPosition=bottom;verticalAlign=top;html=1;" parent="1" vertex="1">
          <mxGeometry x="-680" y="-760" width="70" height="120" as="geometry" />
        </mxCell>
        <mxCell id="BIsx5rSYDtpPCg-pWCxZ-137" style="edgeStyle=orthogonalEdgeStyle;rounded=0;orthogonalLoop=1;jettySize=auto;html=1;" parent="1" edge="1">
          <mxGeometry relative="1" as="geometry">
            <mxPoint x="-1290" y="-460" as="targetPoint" />
            <mxPoint x="-1360" y="-680" as="sourcePoint" />
            <Array as="points">
              <mxPoint x="-1320" y="-570" />
              <mxPoint x="-1290" y="-570" />
            </Array>
          </mxGeometry>
        </mxCell>
        <mxCell id="BIsx5rSYDtpPCg-pWCxZ-148" style="edgeStyle=orthogonalEdgeStyle;rounded=0;orthogonalLoop=1;jettySize=auto;html=1;" parent="1" edge="1">
          <mxGeometry relative="1" as="geometry">
            <mxPoint x="-1360" y="-710" as="sourcePoint" />
            <mxPoint x="-1030" y="-530" as="targetPoint" />
            <Array as="points">
              <mxPoint x="-1360" y="-710" />
              <mxPoint x="-1360" y="-680" />
              <mxPoint x="-1320" y="-680" />
              <mxPoint x="-1320" y="-679" />
              <mxPoint x="-1175" y="-679" />
              <mxPoint x="-1175" y="-535" />
              <mxPoint x="-1030" y="-535" />
            </Array>
          </mxGeometry>
        </mxCell>
        <mxCell id="BIsx5rSYDtpPCg-pWCxZ-154" style="edgeStyle=orthogonalEdgeStyle;rounded=0;orthogonalLoop=1;jettySize=auto;html=1;" parent="1" edge="1">
          <mxGeometry relative="1" as="geometry">
            <mxPoint x="-860" y="-577.5" as="targetPoint" />
            <mxPoint x="-1360" y="-730" as="sourcePoint" />
          </mxGeometry>
        </mxCell>
        <mxCell id="WOAsNPhqjVb93GGCy772-28" style="edgeStyle=orthogonalEdgeStyle;rounded=0;orthogonalLoop=1;jettySize=auto;html=1;" edge="1" parent="1" source="BIsx5rSYDtpPCg-pWCxZ-134">
          <mxGeometry relative="1" as="geometry">
            <mxPoint x="-1760" y="-910" as="targetPoint" />
          </mxGeometry>
        </mxCell>
        <mxCell id="BIsx5rSYDtpPCg-pWCxZ-134" value="Студент" style="shape=umlActor;verticalLabelPosition=bottom;verticalAlign=top;html=1;" parent="1" vertex="1">
          <mxGeometry x="-1790" y="-810" width="60" height="130" as="geometry" />
        </mxCell>
        <mxCell id="BIsx5rSYDtpPCg-pWCxZ-144" style="edgeStyle=orthogonalEdgeStyle;rounded=0;orthogonalLoop=1;jettySize=auto;html=1;exitX=1;exitY=0.3333333333333333;exitDx=0;exitDy=0;exitPerimeter=0;" parent="1" source="BIsx5rSYDtpPCg-pWCxZ-139" edge="1">
          <mxGeometry relative="1" as="geometry">
            <mxPoint x="-1280" y="-460" as="targetPoint" />
            <Array as="points">
              <mxPoint x="-1280" y="-357" />
            </Array>
          </mxGeometry>
        </mxCell>
        <mxCell id="BIsx5rSYDtpPCg-pWCxZ-146" style="edgeStyle=orthogonalEdgeStyle;rounded=0;orthogonalLoop=1;jettySize=auto;html=1;exitX=0.833;exitY=0.346;exitDx=0;exitDy=0;exitPerimeter=0;" parent="1" source="BIsx5rSYDtpPCg-pWCxZ-139" edge="1">
          <mxGeometry relative="1" as="geometry">
            <mxPoint x="-980" y="-250" as="targetPoint" />
            <Array as="points">
              <mxPoint x="-1320" y="-335" />
              <mxPoint x="-990" y="-335" />
              <mxPoint x="-990" y="-250" />
            </Array>
          </mxGeometry>
        </mxCell>
        <mxCell id="BIsx5rSYDtpPCg-pWCxZ-157" style="edgeStyle=orthogonalEdgeStyle;rounded=0;orthogonalLoop=1;jettySize=auto;html=1;" parent="1" source="BIsx5rSYDtpPCg-pWCxZ-139" edge="1">
          <mxGeometry relative="1" as="geometry">
            <mxPoint x="-1150" y="-250" as="targetPoint" />
          </mxGeometry>
        </mxCell>
        <mxCell id="BIsx5rSYDtpPCg-pWCxZ-139" value="Преподаватель" style="shape=umlActor;verticalLabelPosition=bottom;verticalAlign=top;html=1;" parent="1" vertex="1">
          <mxGeometry x="-1370" y="-400" width="60" height="130" as="geometry" />
        </mxCell>
        <mxCell id="BIsx5rSYDtpPCg-pWCxZ-149" value="Допуск на экзамен" style="ellipse;whiteSpace=wrap;html=1;" parent="1" vertex="1">
          <mxGeometry x="-1090" y="-820" width="140" height="70" as="geometry" />
        </mxCell>
        <mxCell id="BIsx5rSYDtpPCg-pWCxZ-160" style="edgeStyle=orthogonalEdgeStyle;rounded=0;orthogonalLoop=1;jettySize=auto;html=1;" parent="1" source="BIsx5rSYDtpPCg-pWCxZ-150" edge="1">
          <mxGeometry relative="1" as="geometry">
            <mxPoint x="-1110" y="-400" as="targetPoint" />
          </mxGeometry>
        </mxCell>
        <mxCell id="BIsx5rSYDtpPCg-pWCxZ-150" value="Получение билета" style="ellipse;whiteSpace=wrap;html=1;" parent="1" vertex="1">
          <mxGeometry x="-1120" y="-670" width="140" height="70" as="geometry" />
        </mxCell>
        <mxCell id="BIsx5rSYDtpPCg-pWCxZ-151" value="Получение оценки" style="ellipse;whiteSpace=wrap;html=1;" parent="1" vertex="1">
          <mxGeometry x="-1060" y="-560" width="140" height="70" as="geometry" />
        </mxCell>
        <mxCell id="BIsx5rSYDtpPCg-pWCxZ-152" value="Вызов на собеседование" style="ellipse;whiteSpace=wrap;html=1;" parent="1" vertex="1">
          <mxGeometry x="-1350" y="-500" width="140" height="70" as="geometry" />
        </mxCell>
        <mxCell id="BIsx5rSYDtpPCg-pWCxZ-153" value="Оценка знаний" style="ellipse;whiteSpace=wrap;html=1;" parent="1" vertex="1">
          <mxGeometry x="-1060" y="-260" width="140" height="70" as="geometry" />
        </mxCell>
        <mxCell id="BIsx5rSYDtpPCg-pWCxZ-156" value="Ознакомиться с получением экзамена автоматом" style="ellipse;whiteSpace=wrap;html=1;" parent="1" vertex="1">
          <mxGeometry x="-910" y="-640" width="140" height="70" as="geometry" />
        </mxCell>
        <mxCell id="BIsx5rSYDtpPCg-pWCxZ-158" value="Сделать билеты на экзамен" style="ellipse;whiteSpace=wrap;html=1;" parent="1" vertex="1">
          <mxGeometry x="-1220" y="-260" width="140" height="70" as="geometry" />
        </mxCell>
        <mxCell id="BIsx5rSYDtpPCg-pWCxZ-159" value="Написать решение задачи/ ответ на вопрос" style="ellipse;whiteSpace=wrap;html=1;" parent="1" vertex="1">
          <mxGeometry x="-1180" y="-460" width="160" height="90" as="geometry" />
        </mxCell>
        <mxCell id="BIsx5rSYDtpPCg-pWCxZ-163" value="Назначить дату и время экзамена" style="ellipse;whiteSpace=wrap;html=1;" parent="1" vertex="1">
          <mxGeometry x="-720" y="-510" width="140" height="70" as="geometry" />
        </mxCell>
        <mxCell id="WOAsNPhqjVb93GGCy772-1" value="Получение полных сведений о студенте" style="ellipse;whiteSpace=wrap;html=1;" vertex="1" parent="1">
          <mxGeometry x="-530" y="-820" width="140" height="70" as="geometry" />
        </mxCell>
        <mxCell id="WOAsNPhqjVb93GGCy772-2" value="Получение сводки по факультуту" style="ellipse;whiteSpace=wrap;html=1;" vertex="1" parent="1">
          <mxGeometry x="-540" y="-710" width="140" height="70" as="geometry" />
        </mxCell>
        <mxCell id="WOAsNPhqjVb93GGCy772-3" value="Получение сведений о группе" style="ellipse;whiteSpace=wrap;html=1;" vertex="1" parent="1">
          <mxGeometry x="-540" y="-610" width="140" height="70" as="geometry" />
        </mxCell>
        <mxCell id="WOAsNPhqjVb93GGCy772-4" value="Получение списков задолжников" style="ellipse;whiteSpace=wrap;html=1;" vertex="1" parent="1">
          <mxGeometry x="-540" y="-490" width="140" height="70" as="geometry" />
        </mxCell>
        <mxCell id="WOAsNPhqjVb93GGCy772-14" value="Ввод списка студентов" style="ellipse;whiteSpace=wrap;html=1;" vertex="1" parent="1">
          <mxGeometry x="-710" y="-940" width="140" height="70" as="geometry" />
        </mxCell>
        <mxCell id="WOAsNPhqjVb93GGCy772-17" value="Ввод результат сдач" style="ellipse;whiteSpace=wrap;html=1;" vertex="1" parent="1">
          <mxGeometry x="-870" y="-940" width="140" height="70" as="geometry" />
        </mxCell>
        <mxCell id="WOAsNPhqjVb93GGCy772-29" style="edgeStyle=orthogonalEdgeStyle;rounded=0;orthogonalLoop=1;jettySize=auto;html=1;" edge="1" parent="1" source="WOAsNPhqjVb93GGCy772-20">
          <mxGeometry relative="1" as="geometry">
            <mxPoint x="-1760" y="-1110" as="targetPoint" />
            <Array as="points">
              <mxPoint x="-1750" y="-900" />
              <mxPoint x="-1750" y="-900" />
            </Array>
          </mxGeometry>
        </mxCell>
        <mxCell id="WOAsNPhqjVb93GGCy772-20" value="Выбор специальности" style="ellipse;whiteSpace=wrap;html=1;" vertex="1" parent="1">
          <mxGeometry x="-1830" y="-940" width="140" height="70" as="geometry" />
        </mxCell>
        <mxCell id="WOAsNPhqjVb93GGCy772-26" value="Проверка знаний в конце семестра" style="html=1;whiteSpace=wrap;" vertex="1" parent="1">
          <mxGeometry x="-1430" y="-760" width="170" height="130" as="geometry" />
        </mxCell>
        <mxCell id="WOAsNPhqjVb93GGCy772-31" style="edgeStyle=orthogonalEdgeStyle;rounded=0;orthogonalLoop=1;jettySize=auto;html=1;" edge="1" parent="1" source="WOAsNPhqjVb93GGCy772-19">
          <mxGeometry relative="1" as="geometry">
            <mxPoint x="-1530" y="-1140" as="targetPoint" />
          </mxGeometry>
        </mxCell>
        <mxCell id="WOAsNPhqjVb93GGCy772-19" value="Выбор платного или бесплатного обучения" style="ellipse;whiteSpace=wrap;html=1;" vertex="1" parent="1">
          <mxGeometry x="-1830" y="-1130" width="140" height="70" as="geometry" />
        </mxCell>
        <mxCell id="WOAsNPhqjVb93GGCy772-33" style="edgeStyle=orthogonalEdgeStyle;rounded=0;orthogonalLoop=1;jettySize=auto;html=1;" edge="1" parent="1" source="WOAsNPhqjVb93GGCy772-18">
          <mxGeometry relative="1" as="geometry">
            <mxPoint x="-1530" y="-800" as="targetPoint" />
          </mxGeometry>
        </mxCell>
        <mxCell id="WOAsNPhqjVb93GGCy772-18" value="Поступление в университет" style="ellipse;whiteSpace=wrap;html=1;" vertex="1" parent="1">
          <mxGeometry x="-1600" y="-1140" width="140" height="70" as="geometry" />
        </mxCell>
        <mxCell id="WOAsNPhqjVb93GGCy772-32" value="Посещение занятий" style="ellipse;whiteSpace=wrap;html=1;" vertex="1" parent="1">
          <mxGeometry x="-1600" y="-1000" width="140" height="70" as="geometry" />
        </mxCell>
        <mxCell id="WOAsNPhqjVb93GGCy772-37" style="edgeStyle=orthogonalEdgeStyle;rounded=0;orthogonalLoop=1;jettySize=auto;html=1;" edge="1" parent="1" source="WOAsNPhqjVb93GGCy772-35">
          <mxGeometry relative="1" as="geometry">
            <mxPoint x="-1530" y="-820" as="targetPoint" />
          </mxGeometry>
        </mxCell>
        <mxCell id="WOAsNPhqjVb93GGCy772-34" value="Получение оценок/баллов в течение учебного семестра" style="ellipse;whiteSpace=wrap;html=1;" vertex="1" parent="1">
          <mxGeometry x="-1600" y="-850" width="140" height="70" as="geometry" />
        </mxCell>
        <mxCell id="WOAsNPhqjVb93GGCy772-35" value="" style="line;strokeWidth=1;fillColor=none;align=left;verticalAlign=middle;spacingTop=-1;spacingLeft=3;spacingRight=3;rotatable=0;labelPosition=right;points=[];portConstraint=eastwest;strokeColor=inherit;" vertex="1" parent="1">
          <mxGeometry x="-1530" y="-680" width="100" height="70" as="geometry" />
        </mxCell>
      </root>
    </mxGraphModel>
  </diagram>
</mxfile>
